<?xml version="1.0" encoding="UTF-8"?>
<!DOCTYPE svg PUBLIC "-//W3C//DTD SVG 1.1//EN" "http://www.w3.org/Graphics/SVG/1.1/DTD/svg11.dtd">
<svg xmlns="http://www.w3.org/2000/svg" version="1.1" width="76px" height="53px" style="shape-rendering:geometricPrecision; text-rendering:geometricPrecision; image-rendering:optimizeQuality; fill-rule:evenodd; clip-rule:evenodd" xmlns:xlink="http://www.w3.org/1999/xlink">
<g><path style="opacity:1" fill="#fdfcfc" d="M 3.5,-0.5 C 26.1667,-0.5 48.8333,-0.5 71.5,-0.5C 71.5,-0.166667 71.5,0.166667 71.5,0.5C 71.5,15.1667 71.5,29.8333 71.5,44.5C 48.8333,44.5 26.1667,44.5 3.5,44.5C 3.5,29.8333 3.5,15.1667 3.5,0.5C 3.5,0.166667 3.5,-0.166667 3.5,-0.5 Z"/></g>
<g><path style="opacity:0.112" fill="#0c0c0c" d="M 3.5,0.5 C 3.5,15.1667 3.5,29.8333 3.5,44.5C 26.1667,44.5 48.8333,44.5 71.5,44.5C 71.5,29.8333 71.5,15.1667 71.5,0.5C 72.7498,0.57735 73.5831,1.24402 74,2.5C 74.6667,17.8333 74.6667,33.1667 74,48.5C 72.7501,50.1935 71.2501,51.5268 69.5,52.5C 69.1667,52.5 68.8333,52.5 68.5,52.5C 67.5,51.1667 66.5,51.1667 65.5,52.5C 65.1667,52.5 64.8333,52.5 64.5,52.5C 64.1667,51.1667 63.8333,51.1667 63.5,52.5C 62.5,52.5 61.5,52.5 60.5,52.5C 60.1667,51.1667 59.8333,51.1667 59.5,52.5C 58.1667,52.5 56.8333,52.5 55.5,52.5C 55.1667,51.1667 54.8333,51.1667 54.5,52.5C 51.8333,52.5 49.1667,52.5 46.5,52.5C 46.1667,51.1667 45.8333,51.1667 45.5,52.5C 45.1667,52.5 44.8333,52.5 44.5,52.5C 44.1667,51.1667 43.8333,51.1667 43.5,52.5C 42.8333,52.5 42.1667,52.5 41.5,52.5C 40.5,51.1667 39.5,51.1667 38.5,52.5C 37.8333,52.5 37.1667,52.5 36.5,52.5C 35.8333,51.1667 35.1667,51.1667 34.5,52.5C 34.1667,52.5 33.8333,52.5 33.5,52.5C 33.1667,51.1667 32.8333,51.1667 32.5,52.5C 31.1667,52.5 29.8333,52.5 28.5,52.5C 28.1667,51.1667 27.8333,51.1667 27.5,52.5C 25.1667,52.5 22.8333,52.5 20.5,52.5C 19.8333,51.1667 19.1667,51.1667 18.5,52.5C 16.8333,52.5 15.1667,52.5 13.5,52.5C 13.1667,51.1667 12.8333,51.1667 12.5,52.5C 11.1667,52.5 9.83333,52.5 8.5,52.5C 8.16667,51.1667 7.83333,51.1667 7.5,52.5C 7.16667,52.5 6.83333,52.5 6.5,52.5C 5.04839,51.6981 3.38172,51.1981 1.5,51C 0.901085,49.3775 0.234419,47.8775 -0.5,46.5C -0.5,45.5 -0.5,44.5 -0.5,43.5C 0.833333,43.1667 0.833333,42.8333 -0.5,42.5C -0.5,42.1667 -0.5,41.8333 -0.5,41.5C 0.833333,41.1667 0.833333,40.8333 -0.5,40.5C -0.5,38.1667 -0.5,35.8333 -0.5,33.5C 0.833333,33.1667 0.833333,32.8333 -0.5,32.5C -0.5,29.5 -0.5,26.5 -0.5,23.5C 0.833333,23.1667 0.833333,22.8333 -0.5,22.5C -0.5,18.8333 -0.5,15.1667 -0.5,11.5C 0.833333,10.8333 0.833333,10.1667 -0.5,9.5C -0.5,8.16667 -0.5,6.83333 -0.5,5.5C 0.833333,5.16667 0.833333,4.83333 -0.5,4.5C -0.5,4.16667 -0.5,3.83333 -0.5,3.5C 0.236209,1.77055 1.56954,0.770553 3.5,0.5 Z"/></g>
<g><path style="opacity:1" fill="#df6f68" d="M 37.5,11.5 C 38.7759,12.3864 38.7759,13.3864 37.5,14.5C 36.4376,13.5754 36.4376,12.5754 37.5,11.5 Z"/></g>
<g><path style="opacity:1" fill="#cd2b24" d="M 26.5,15.5 C 28.8333,15.5 31.1667,15.5 33.5,15.5C 33.6657,19.8461 33.499,24.1794 33,28.5C 31.238,32.732 28.738,33.3987 25.5,30.5C 27.1667,29.8333 28.8333,29.1667 30.5,28.5C 24.8098,26.973 22.9764,23.3063 25,17.5C 25.7172,16.9558 26.2172,16.2891 26.5,15.5 Z"/></g>
<g><path style="opacity:1" fill="#c91714" d="M 36.5,15.5 C 37.7943,17.0478 38.4609,19.0478 38.5,21.5C 38.1667,23.5 37.8333,25.5 37.5,27.5C 36.5091,23.5546 36.1758,19.5546 36.5,15.5 Z"/></g>
<g><path style="opacity:1" fill="#ce3029" d="M 41.5,15.5 C 44.2469,15.1866 46.9135,15.52 49.5,16.5C 47.8569,19.4451 46.5236,22.4451 45.5,25.5C 47.288,25.2148 48.9547,25.5481 50.5,26.5C 47.5,27.8333 44.5,27.8333 41.5,26.5C 42.8333,23.8333 44.1667,21.1667 45.5,18.5C 43.6684,17.9432 42.3351,16.9432 41.5,15.5 Z"/></g>
<g><path style="opacity:1" fill="#f9d8d7" d="M 27.5,17.5 C 28.8221,17.33 29.9887,17.6634 31,18.5C 31.6667,20.5 31.6667,22.5 31,24.5C 29.6667,25.8333 28.3333,25.8333 27,24.5C 26.2967,22.0709 26.4634,19.7375 27.5,17.5 Z"/></g>
</svg>
